<svg width="193" height="73" viewBox="0 0 193 73" fill="none" xmlns="http://www.w3.org/2000/svg">
<rect x="2.5" y="2.5" width="188" height="68" fill="#C4C4C4" fill-opacity="0.01" stroke="#FEFFFF" stroke-width="5"/>
<rect x="17.5" y="17.5" width="158" height="38" fill="#C4C4C4" fill-opacity="0.01" stroke="#3AAFA9" stroke-width="5"/>
<path d="M53.7891 38.6055H47.0391V43.1758H54.9609V46H43.5234V28.9375H54.9375V31.7852H47.0391V35.8516H53.7891V38.6055ZM61.6172 28.9375L66 41.3125L70.3594 28.9375H74.9766V46H71.4492V41.3359L71.8008 33.2852L67.1953 46H64.7812L60.1875 33.2969L60.5391 41.3359V46H57.0234V28.9375H61.6172ZM81.7852 46H78.2695V28.9375H81.7852V46ZM95.3203 38.6055H88.5703V43.1758H96.4922V46H85.0547V28.9375H96.4688V31.7852H88.5703V35.8516H95.3203V38.6055Z" fill="#3AAFA9"/>
<path d="M98.0156 39.6367C98.2031 38.2539 98.5742 37.0547 99.1289 36.0391C99.6914 35.0156 100.371 34.2617 101.168 33.7773C101.973 33.2852 102.852 33.0508 103.805 33.0742C105.273 33.1055 106.383 33.6602 107.133 34.7383L107.555 33.3203H109.5L107.391 45.7305C107.164 47.3477 106.508 48.6406 105.422 49.6094C104.336 50.5859 102.996 51.0508 101.402 51.0039C100.543 50.9883 99.7188 50.7852 98.9297 50.3945C98.1484 50.0039 97.5312 49.4688 97.0781 48.7891L98.2852 47.4883C99.0508 48.6211 100.062 49.2031 101.32 49.2344C102.328 49.2656 103.18 48.9844 103.875 48.3906C104.578 47.7969 105.043 46.9531 105.27 45.8594L105.504 44.7344C104.473 45.7656 103.266 46.2656 101.883 46.2344C101.094 46.2109 100.406 46 99.8203 45.6016C99.2422 45.1953 98.793 44.6133 98.4727 43.8555C98.1523 43.0898 97.9766 42.2383 97.9453 41.3008C97.9297 40.8398 97.9531 40.2852 98.0156 39.6367ZM100.066 40.8438C100.043 41.9609 100.234 42.8281 100.641 43.4453C101.055 44.0547 101.676 44.375 102.504 44.4062C103.77 44.4375 104.859 43.8164 105.773 42.543L106.77 36.7188C106.301 35.5625 105.453 34.9609 104.227 34.9141C103.078 34.8828 102.133 35.3516 101.391 36.3203C100.656 37.2891 100.223 38.5977 100.09 40.2461L100.066 40.8438ZM112.887 46H110.777L113.895 28H116.016L112.887 46ZM124.113 46C124.059 45.7734 124.031 45.5508 124.031 45.332L124.066 44.6641C122.902 45.7422 121.668 46.2656 120.363 46.2344C119.246 46.2188 118.336 45.8672 117.633 45.1797C116.938 44.4844 116.621 43.6172 116.684 42.5781C116.762 41.2344 117.348 40.1875 118.441 39.4375C119.543 38.6797 120.988 38.3008 122.777 38.3008L124.992 38.3125L125.133 37.3047C125.211 36.5469 125.062 35.9492 124.688 35.5117C124.32 35.0664 123.766 34.8359 123.023 34.8203C122.297 34.8047 121.652 34.9844 121.09 35.3594C120.535 35.7266 120.195 36.2148 120.07 36.8242L117.938 36.8359C118.008 36.0938 118.297 35.4375 118.805 34.8672C119.312 34.2891 119.965 33.8438 120.762 33.5312C121.559 33.2109 122.383 33.0586 123.234 33.0742C124.555 33.1055 125.582 33.5078 126.316 34.2812C127.051 35.0469 127.359 36.0664 127.242 37.3398L126.211 43.6211L126.152 44.5234C126.137 44.9531 126.184 45.3789 126.293 45.8008L126.27 46H124.113ZM120.785 44.3594C121.465 44.375 122.105 44.2148 122.707 43.8789C123.316 43.5352 123.84 43.0625 124.277 42.4609L124.734 39.8477L123.129 39.8359C121.793 39.8359 120.77 40.0469 120.059 40.4688C119.348 40.8906 118.945 41.4883 118.852 42.2617C118.781 42.8555 118.918 43.3516 119.262 43.75C119.613 44.1406 120.121 44.3438 120.785 44.3594ZM133.336 33.3086L133.066 34.7266C134.129 33.6016 135.414 33.0547 136.922 33.0859C137.727 33.1016 138.406 33.2852 138.961 33.6367C139.523 33.9883 139.91 34.4844 140.121 35.125C141.309 33.7344 142.711 33.0547 144.328 33.0859C145.594 33.1172 146.527 33.543 147.129 34.3633C147.73 35.1836 147.953 36.2852 147.797 37.668L146.402 46H144.293L145.676 37.6445C145.723 37.2383 145.723 36.8672 145.676 36.5312C145.527 35.4688 144.832 34.9258 143.59 34.9023C142.816 34.8867 142.113 35.1289 141.48 35.6289C140.855 36.1211 140.453 36.7695 140.273 37.5742L138.832 46H136.699L138.105 37.6562C138.207 36.7891 138.074 36.1211 137.707 35.6523C137.348 35.1836 136.785 34.9414 136.02 34.9258C134.699 34.8945 133.648 35.4961 132.867 36.7305L131.262 46H129.141L131.344 33.3203L133.336 33.3086Z" fill="#FEFFFF"/>
</svg>
